# xmcd
#
# Track frame offsets:
#	150
#	26018
#	37354
#	51997
#	66480
#	78573
#	91432
#	115715
#	133867
#	155446
#	171796
#	185924
#	202295
#	223733
#	235226
#	254107
#	273255
#	298096
#	312614
#	328572
#
# Disc length: 4728 seconds
#
# Revision: 1
# Processed by: cddbd v1.5.1PL0 Copyright (c) Steve Scherf et al.
# Submitted via: CDex 1.50Beta5
#
DISCID=4d127614
DTITLE=鈴木章治とリズム・エース - The Best Of Shoji Suzuki
DYEAR=1900
DGENRE=Jazz
TTITLE0=鈴懸の径
TTITLE1=森の小径
TTITLE2=シャイン
TTITLE3=煙が目にしみる
TTITLE4=アマポーラ
TTITLE5=セントルイス・ブルース
TTITLE6=朝日のようにさわやかに
TTITLE7=我が心のジョージア
TTITLE8=シャイニー・ストッキングス
TTITLE9=ムーングロウ
TTITLE10=アイ・サレンダー・ディア
TTITLE11=私の彼氏
TTITLE12=ス・ワンダフル
TTITLE13=センド・イン・ザ・クラウン
TTITLE14=ミスティー
TTITLE15=いそしぎ
TTITLE16=恋人よ我に帰れ
TTITLE17=時のたつまま
TTITLE18=メモリーズ・オブ・ユー
TTITLE19=鈴懸の径（新録音）
EXTD=
EXTT0=
EXTT1=
EXTT2=
EXTT3=
EXTT4=
EXTT5=
EXTT6=
EXTT7=
EXTT8=
EXTT9=
EXTT10=
EXTT11=
EXTT12=
EXTT13=
EXTT14=
EXTT15=
EXTT16=
EXTT17=
EXTT18=
EXTT19=
PLAYORDER=
